<?xml version="1.0" standalone="no"?><!DOCTYPE svg PUBLIC "-//W3C//DTD SVG 1.1//EN" "http://www.w3.org/Graphics/SVG/1.1/DTD/svg11.dtd"><svg t="1676192088778" class="icon" viewBox="0 0 1024 1024" version="1.1" xmlns="http://www.w3.org/2000/svg" p-id="4645" xmlns:xlink="http://www.w3.org/1999/xlink" width="200" height="200"><path d="M275.5 768.3c-11 0-20-9-20-20v-473c0-11 9-20 20-20h473c11 0 20 9 20 20v473c0 11-9 20-20 20h-473z" fill="#2269F9" p-id="4646"></path><path d="M748.5 265.3c5.5 0 10 4.5 10 10v473c0 5.5-4.5 10-10 10h-473c-5.5 0-10-4.5-10-10v-473c0-5.5 4.5-10 10-10h473m0-20h-473c-16.6 0-30 13.4-30 30v473c0 16.6 13.4 30 30 30h473c16.6 0 30-13.4 30-30v-473c0-16.6-13.4-30-30-30z" fill="#101780" p-id="4647"></path><path d="M632 661.8H392c-16.6 0-30-13.4-30-30v-240c0-16.6 13.4-30 30-30h240c16.6 0 30 13.4 30 30v240c0 16.5-13.4 30-30 30z" fill="#101780" p-id="4648"></path><path d="M439.5 245.3h-26v-78.8c0-7.2 5.8-13 13-13s13 5.8 13 13v78.8zM610.5 245.3h-26v-78.8c0-7.2 5.8-13 13-13s13 5.8 13 13v78.8zM426.5 870.6c-7.2 0-13-5.8-13-13v-78.8h26v78.8c0 7.2-5.8 13-13 13zM597.5 870.6c-7.2 0-13-5.8-13-13v-78.8h26v78.8c0 7.2-5.8 13-13 13zM245.5 584.3v26h-78.8c-7.2 0-13-5.8-13-13s5.8-13 13-13h78.8zM245.5 413.3v26h-78.8c-7.2 0-13-5.8-13-13s5.8-13 13-13h78.8zM870.4 597.3c0 7.2-5.8 13-13 13h-78.8v-26h78.8c7.1 0 13 5.8 13 13zM870.4 426.3c0 7.2-5.8 13-13 13h-78.8v-26h78.8c7.1 0 13 5.8 13 13z" fill="#FFE164" p-id="4649"></path><path d="M354 245.3h-26v-78.8c0-7.2 5.8-13 13-13s13 5.8 13 13v78.8zM525 245.3h-26v-78.8c0-7.2 5.8-13 13-13s13 5.8 13 13v78.8zM696 245.3h-26v-78.8c0-7.2 5.8-13 13-13s13 5.8 13 13v78.8zM341 870.6c-7.2 0-13-5.8-13-13v-78.8h26v78.8c0 7.2-5.8 13-13 13zM512 870.6c-7.2 0-13-5.8-13-13v-78.8h26v78.8c0 7.2-5.8 13-13 13zM683 870.6c-7.2 0-13-5.8-13-13v-78.8h26v78.8c0 7.2-5.8 13-13 13zM245.5 669.8v26h-78.8c-7.2 0-13-5.8-13-13s5.8-13 13-13h78.8zM245.5 498.8v26h-78.8c-7.2 0-13-5.8-13-13s5.8-13 13-13h78.8zM245.5 327.8v26h-78.8c-7.2 0-13-5.8-13-13s5.8-13 13-13h78.8zM870.4 682.8c0 7.2-5.8 13-13 13h-78.8v-26h78.8c7.1 0 13 5.8 13 13zM870.4 511.8c0 7.2-5.8 13-13 13h-78.8v-26h78.8c7.1 0 13 5.8 13 13zM870.4 340.8c0 7.2-5.8 13-13 13h-78.8v-26h78.8c7.1 0 13 5.8 13 13z" fill="#F0CC37" p-id="4650"></path><path d="M484.2 527.7c-3.3 4-7.2 7-11.6 9.1-4.5 2.1-9.4 3.1-15 3.1-5 0-9.6-0.9-13.8-2.7-4.2-1.8-7.9-4.2-11-7.3-3.1-3.1-5.5-6.8-7.3-11-1.8-4.2-2.7-8.8-2.7-13.7 0-4.9 0.9-9.5 2.7-13.7 1.8-4.2 4.2-7.9 7.3-11 3.1-3.1 6.8-5.5 11-7.3 4.2-1.8 8.8-2.7 13.8-2.7 5.3 0 10 0.9 14.1 2.8s7.7 4.6 10.8 8.1l-8.8 8.6c-2-2.3-4.3-4.1-6.8-5.5-2.6-1.4-5.6-2-9.2-2-3.1 0-6 0.5-8.7 1.6-2.7 1.1-5.1 2.6-7.1 4.6-2 2-3.6 4.4-4.8 7.2-1.2 2.8-1.8 6-1.8 9.4 0 3.5 0.6 6.6 1.8 9.4 1.2 2.8 2.8 5.2 4.8 7.2s4.4 3.5 7.1 4.6c2.7 1.1 5.6 1.6 8.7 1.6 3.7 0 7-0.8 9.9-2.3 2.9-1.5 5.4-3.7 7.7-6.5l8.9 8.4zM494.2 538.4v-66.5h23.4c3.2 0 6.1 0.5 8.9 1.5 2.8 1 5.2 2.5 7.2 4.3 2 1.9 3.7 4.1 4.8 6.6 1.2 2.6 1.8 5.4 1.8 8.5 0 3.2-0.6 6-1.8 8.6-1.2 2.6-2.8 4.8-4.8 6.6-2 1.9-4.4 3.3-7.2 4.3s-5.7 1.5-8.9 1.5h-10.9v24.4h-12.5z m23.6-36.3c3.3 0 5.8-0.9 7.4-2.8 1.7-1.9 2.5-4 2.5-6.4 0-1.2-0.2-2.3-0.6-3.4-0.4-1.1-1-2.1-1.9-2.9-0.8-0.8-1.9-1.5-3.1-2-1.2-0.5-2.7-0.7-4.4-0.7h-11.1v18.3h11.2zM573.6 539.9c-3.9 0-7.5-0.6-10.6-1.9-3.2-1.3-5.9-3.1-8.1-5.5-2.2-2.4-4-5.3-5.2-8.8-1.2-3.4-1.9-7.4-1.9-11.8v-40.1h12.5v40.8c0 2.2 0.3 4.3 0.8 6.1 0.6 1.9 1.4 3.5 2.5 4.8 1.1 1.4 2.5 2.4 4.2 3.2 1.7 0.8 3.6 1.2 5.8 1.2 2.2 0 4.2-0.4 5.9-1.2 1.7-0.8 3.1-1.8 4.2-3.2 1.1-1.4 2-3 2.5-4.8 0.6-1.9 0.8-3.9 0.8-6.1v-40.8h12.5v40.1c0 4.2-0.6 7.9-1.8 11.4-1.2 3.4-2.9 6.4-5.2 8.8-2.3 2.4-5 4.4-8.2 5.7-3.2 1.4-6.8 2.1-10.7 2.1z" fill="#FFE164" p-id="4651"></path></svg>