<svg id="图层_4" data-name="图层 4" xmlns="http://www.w3.org/2000/svg" viewBox="0 0 595.28 841.89"><defs><style>.cls-1{fill:#cc2229;}.cls-2{fill:none;}.cls-3{fill:#505e86;}</style></defs><title>logo</title><path class="cls-1" d="M179.85,391q-2.81-2.51-5.83-4.78Z"/><path class="cls-1" d="M113.91,506.18l0-.08a46.52,46.52,0,1,1,41.86-74.22l42.12-19A92.55,92.55,0,0,0,179.85,391l-6.56-5.32a92.12,92.12,0,1,0-54.67,166.27c1.07,0,2.13,0,3.19-.06Z"/><path class="cls-1" d="M59.19,520.93q2.72,2.61,5.65,5Z"/><path class="cls-1" d="M129.28,408.21l0,.08A46.52,46.52,0,1,1,84.7,480.94L41.92,498.34a92.55,92.55,0,0,0,17.27,22.59l6.36,5.56a92.12,92.12,0,1,0,60.69-164.17c-1.07,0-2.13-.05-3.19-.06Z"/><path class="cls-2" d="M126.47,362.32c-1.07,0-2.13-.06-3.19-.06l1.14,8.6a91.64,91.64,0,0,1,47.28,18.72l6.44,5.46-5.73-4.9q3,2.34,5.73,4.9a92.55,92.55,0,0,1,17.61,22.33L163.2,431.17a46.52,46.52,0,0,1-69.78,59.2,46.79,46.79,0,0,1-8.8-9.54l-10,4a46.52,46.52,0,0,0,35.14,23.84l0,.08,5.64,37.4q1.95.16,3.92.24a92.12,92.12,0,0,0,7.17-184.1Z"/><path class="cls-3" d="M178.14,395q-2.76-2.57-5.73-4.9Z"/><path class="cls-3" d="M178.14,395l-6.44-5.46a91.64,91.64,0,0,0-47.28-18.72l5,37.37,0,.08a46.51,46.51,0,0,1,33.86,22.87l32.54-13.81A92.55,92.55,0,0,0,178.14,395Z"/><path class="cls-3" d="M109.78,508.7a46.52,46.52,0,0,1-35.14-23.84L41.8,498.13A92.55,92.55,0,0,0,59,520.76l6.35,5.57a91.66,91.66,0,0,0,50,19.85l-5.64-37.4Z"/><path class="cls-3" d="M322.81,466.54a60.84,60.84,0,0,1-2.65,18.58,37.86,37.86,0,0,1-7.9,14.08,34.45,34.45,0,0,1-13.19,8.93,50.49,50.49,0,0,1-18.52,3.12,51.43,51.43,0,0,1-18.06-2.86,31.8,31.8,0,0,1-12.59-8.3,34.44,34.44,0,0,1-7.4-13.52A64.53,64.53,0,0,1,240.08,468a59.25,59.25,0,0,1,2.65-18.25,37,37,0,0,1,7.94-14,35.13,35.13,0,0,1,13.23-8.86,57,57,0,0,1,36.33-.29,32.35,32.35,0,0,1,12.62,8.24,34.12,34.12,0,0,1,7.51,13.39A61.91,61.91,0,0,1,322.81,466.54Zm-13,.79a61.16,61.16,0,0,0-1.39-13.42,29.44,29.44,0,0,0-4.64-10.77,21.87,21.87,0,0,0-8.68-7.12,31.37,31.37,0,0,0-13.43-2.56,29.45,29.45,0,0,0-13.43,2.76,24.62,24.62,0,0,0-8.82,7.35,29.3,29.3,0,0,0-4.86,10.73,55.41,55.41,0,0,0-1.46,12.9A65.49,65.49,0,0,0,254.45,481,29.36,29.36,0,0,0,259,491.84a21.39,21.39,0,0,0,8.61,7.09,31.86,31.86,0,0,0,13.53,2.53,30.09,30.09,0,0,0,13.57-2.76,23.75,23.75,0,0,0,8.86-7.45,30.12,30.12,0,0,0,4.78-10.86A57.85,57.85,0,0,0,309.8,467.33Z"/><path class="cls-3" d="M399.11,449.93a27.86,27.86,0,0,1-2.29,11.49,24.33,24.33,0,0,1-6.54,8.73,30,30,0,0,1-10.44,5.58,49,49,0,0,1-14.77,2H354.56v30.59a1.41,1.41,0,0,1-.32.92,2.15,2.15,0,0,1-1,.62,10.61,10.61,0,0,1-1.86.39,26.92,26.92,0,0,1-5.93,0,11.63,11.63,0,0,1-1.9-.39,1.92,1.92,0,0,1-1-.62,1.52,1.52,0,0,1-.29-.92V429.91a4.36,4.36,0,0,1,1.5-3.74,5.5,5.5,0,0,1,3.36-1.12h19.81q3,0,5.76.23a58.41,58.41,0,0,1,6.51,1,28.28,28.28,0,0,1,7.65,2.82,23.83,23.83,0,0,1,6.61,5.09,21.47,21.47,0,0,1,4.18,7A25.16,25.16,0,0,1,399.11,449.93Zm-12.94.92a16.47,16.47,0,0,0-2.11-8.67,14,14,0,0,0-5.22-5.19,18.61,18.61,0,0,0-6.44-2.17,47.39,47.39,0,0,0-6.47-.46H354.56v34.07h11.08a27.88,27.88,0,0,0,9.26-1.31,17.63,17.63,0,0,0,6.19-3.64,15.14,15.14,0,0,0,3.79-5.58A19,19,0,0,0,386.17,450.85Z"/><path class="cls-3" d="M467.61,486.17a22.93,22.93,0,0,1-2.4,10.63,23.21,23.21,0,0,1-6.65,7.91,29.74,29.74,0,0,1-10,4.89,45.13,45.13,0,0,1-12.41,1.64,48.27,48.27,0,0,1-8.62-.72,50.58,50.58,0,0,1-7.08-1.77,35.62,35.62,0,0,1-5.22-2.17,13.89,13.89,0,0,1-2.93-1.9,4.72,4.72,0,0,1-1.21-2,10.85,10.85,0,0,1-.39-3.25,16.55,16.55,0,0,1,.14-2.4,5.4,5.4,0,0,1,.43-1.54,1.74,1.74,0,0,1,.71-.82,2.09,2.09,0,0,1,1-.23,6.14,6.14,0,0,1,2.82,1.12,45.33,45.33,0,0,0,4.68,2.43,48.26,48.26,0,0,0,6.9,2.46,34.2,34.2,0,0,0,9.33,1.15,25.75,25.75,0,0,0,7.33-1,17.8,17.8,0,0,0,5.72-2.79,12.22,12.22,0,0,0,3.68-4.43,13.39,13.39,0,0,0,1.29-6,10.51,10.51,0,0,0-1.79-6.17,17.26,17.26,0,0,0-4.72-4.5,42.67,42.67,0,0,0-6.69-3.54l-7.69-3.28q-3.93-1.67-7.65-3.71a32.22,32.22,0,0,1-6.65-4.79A22.28,22.28,0,0,1,414.8,455a20,20,0,0,1-1.82-8.89,20.72,20.72,0,0,1,2.11-9.49,19.85,19.85,0,0,1,5.86-7,27,27,0,0,1,8.94-4.3,40.67,40.67,0,0,1,11.19-1.48,39.52,39.52,0,0,1,6.19.49,45.47,45.47,0,0,1,5.86,1.31,34.54,34.54,0,0,1,4.9,1.84,12.84,12.84,0,0,1,2.82,1.64,5.15,5.15,0,0,1,.89,1,3.6,3.6,0,0,1,.36.92,8.75,8.75,0,0,1,.21,1.35q.07.79.07,2a18.34,18.34,0,0,1-.11,2.1A7.42,7.42,0,0,1,462,438a1.87,1.87,0,0,1-.61.92,1.45,1.45,0,0,1-.89.29,6.06,6.06,0,0,1-2.47-.92q-1.68-.92-4.11-2.07a38.16,38.16,0,0,0-5.76-2.1,27.18,27.18,0,0,0-7.47-1,21.35,21.35,0,0,0-6.72,1,14.09,14.09,0,0,0-4.72,2.53,10,10,0,0,0-2.79,3.74,11.53,11.53,0,0,0-.93,4.6,10.4,10.4,0,0,0,1.79,6.11,17.5,17.5,0,0,0,4.76,4.53,43.22,43.22,0,0,0,6.76,3.61q3.79,1.64,7.72,3.32t7.72,3.68A32.19,32.19,0,0,1,461,471a21.6,21.6,0,0,1,4.79,6.43A19.66,19.66,0,0,1,467.61,486.17Z"/><path class="cls-3" d="M556.35,466.27a55,55,0,0,1-3.08,19.27,34.6,34.6,0,0,1-9,13.65,37.78,37.78,0,0,1-14.48,8.11A68.71,68.71,0,0,1,509.37,510H489.78a5.36,5.36,0,0,1-3.11-1,4,4,0,0,1-1.47-3.58V429.64a4.05,4.05,0,0,1,1.47-3.58,5.36,5.36,0,0,1,3.11-1h21q12,0,20.31,2.86a37.55,37.55,0,0,1,13.91,8.21,34.68,34.68,0,0,1,8.51,13A48.11,48.11,0,0,1,556.35,466.27Zm-12.94.46a42.8,42.8,0,0,0-1.86-12.83,26.1,26.1,0,0,0-15.87-17q-6.08-2.43-15.66-2.43H497.5v66.11h12.66a47.5,47.5,0,0,0,14.94-2,24.87,24.87,0,0,0,10.15-6.24,26.51,26.51,0,0,0,6.11-10.54A49.19,49.19,0,0,0,543.41,466.73Z"/></svg>